<?xml version="1.0" encoding="utf-8"?>
<!-- Generator: Adobe Illustrator 19.0.0, SVG Export Plug-In . SVG Version: 6.00 Build 0)  -->
<svg version="1.1" id="Layer_1" xmlns="http://www.w3.org/2000/svg" xmlns:xlink="http://www.w3.org/1999/xlink" x="0px" y="0px"
	 viewBox="0 0 300 300" style="enable-background:new 0 0 300 300;" xml:space="preserve">
<style type="text/css">
	.st0{fill:#521F22;}
</style>
<g id="XMLID_1_">
	<g id="XMLID_198_">
		<g id="XMLID_202_">
			<g id="XMLID_203_">
				<g id="XMLID_204_">
					<path id="XMLID_291_" class="st0" d="M297.9,291.7c-0.1,1.7,0.8,1.1,0.9,1.3C298.6,290.2,297.7,291.7,297.9,291.7z"/>
					<polygon id="XMLID_290_" class="st0" points="296,263.8 296.3,264.3 295.5,260.2 					"/>
					<path id="XMLID_289_" class="st0" d="M296,237.7c-1.4,2.5,0.2,9.4-0.3,14.1l-0.3,0.8l1.1,2.1C296.3,249,295.6,241.7,296,237.7z
						"/>
					<path id="XMLID_288_" class="st0" d="M299.1,223.8c-0.6,0.9-0.5-3-0.2,3.2c0.1-0.3,0.1-0.4,0.1-0.6
						C299,225.9,299,225.1,299.1,223.8z"/>
					<path id="XMLID_287_" class="st0" d="M299,226.5C299.1,229.2,299.5,224.7,299,226.5L299,226.5z"/>
					<path id="XMLID_286_" class="st0" d="M298.7,213.8l0.5,3.6c0.3-0.8,0.4-4,0.6-2.8C299.6,210.9,299.3,211.7,298.7,213.8z"/>
					<path id="XMLID_285_" class="st0" d="M297.7,210.4l0.2,1.9C298,211.9,298.1,211.4,297.7,210.4z"/>
					<path id="XMLID_284_" class="st0" d="M298.3,216.2l-0.4-4c-0.2,0.5-0.7,0.6,0.2,1.8C297.6,213.7,298,214.5,298.3,216.2z"/>
					<path id="XMLID_283_" class="st0" d="M298.1,218.5c-0.3,2-0.5,4.6-1,1C297.3,226.4,298.3,225.4,298.1,218.5z"/>
					<path id="XMLID_282_" class="st0" d="M294.5,236.4l-0.4,2.7l0.5,2.3C294.3,240.3,295,236.2,294.5,236.4z"/>
					<path id="XMLID_281_" class="st0" d="M299.5,191.3c-0.3-0.2-0.8,1.2-1.2,1.5l0.3,2.7C298.8,194,299,191.4,299.5,191.3z"/>
					<path id="XMLID_280_" class="st0" d="M298.3,192.7l-0.5-4C297.7,192.3,297.9,193,298.3,192.7z"/>
					<polygon id="XMLID_279_" class="st0" points="296.1,209.7 297.2,216.3 296.1,208.4 					"/>
					<polygon id="XMLID_278_" class="st0" points="299.5,176 300.2,178.3 299.1,174.2 					"/>
					<path id="XMLID_277_" class="st0" d="M299.4,165.9c0.6,1.7,1-2.3,1.3-0.5c-0.1-2.8-0.6-5.1-1.1-7.2
						C299.9,160.4,299.8,162.8,299.4,165.9z"/>
					<path id="XMLID_276_" class="st0" d="M299,154.6c0.1,1.1,0.4,2.3,0.7,3.6C299.5,156.9,299.3,155.8,299,154.6z"/>
					<path id="XMLID_275_" class="st0" d="M297.9,181.9c0.2-0.3,0.7-0.9,0.9-3.1l-0.9,1.6C297.9,180.8,297.9,181.4,297.9,181.9z"/>
					<path id="XMLID_274_" class="st0" d="M297.9,180.4L297.9,180.4c0.1-1.8,0.1-2.9,0.1-3.5C297.9,177.4,297.9,178.4,297.9,180.4z"
						/>
					<path id="XMLID_273_" class="st0" d="M297.9,182.3c0-0.1,0-0.3,0-0.4C297.8,182.1,297.8,182.2,297.9,182.3z"/>
					<path id="XMLID_272_" class="st0" d="M296.9,199.2c-0.5-2.3-1-7.2-1.7-2.5C295.7,198.4,296.1,195.7,296.9,199.2z"/>
					<path id="XMLID_271_" class="st0" d="M296.8,184.3l-0.2,4.2c0.2-0.1,0.6-0.8,0.8,0.3L296.8,184.3z"/>
					<polygon id="XMLID_270_" class="st0" points="296.5,182.2 296.8,184.3 296.9,182.7 					"/>
					<path id="XMLID_269_" class="st0" d="M298.2,161.8c-0.4-1.8-0.4-3.8-0.5-6.1c-0.2,2.4-0.3,4.9-0.3,7.3
						C297.8,163.4,298.2,164.4,298.2,161.8z"/>
					<path id="XMLID_268_" class="st0" d="M298,170.9c0-0.1,0-0.3,0-0.4C297.8,170.7,297.8,170.9,298,170.9z"/>
					<path id="XMLID_267_" class="st0" d="M297.8,133.4c-0.1,0.1-0.1,0.2-0.2,0.4c0,0,0.1,0,0.1,0.1L297.8,133.4z"/>
					<path id="XMLID_266_" class="st0" d="M297.3,163.5c-0.2,1.8,0,2.9,0.3,4c-0.1-1.4-0.1-2.8-0.1-4.4
						C297.4,162.9,297.3,162.9,297.3,163.5z"/>
					<path id="XMLID_265_" class="st0" d="M298.6,148.3c-0.2,1-0.3,2-0.5,3.2C298.4,150.6,298.8,148.7,298.6,148.3z"/>
					<path id="XMLID_264_" class="st0" d="M298.2,169.8c0,0.1,0,0.2,0,0.3C298.4,169.5,298.3,169.6,298.2,169.8z"/>
					<path id="XMLID_263_" class="st0" d="M298.2,169.8c-0.1-0.9-0.3-1.7-0.5-2.4c0.1,1.1,0.2,2.1,0.3,3
						C298,170.2,298.1,170,298.2,169.8z"/>
					<path id="XMLID_262_" class="st0" d="M292.3,126.7c0.8,0.3,1.5,5.1,0.7,9.3c0.6,4.1,3.2,1.4,4.7-2.1c-0.3-0.1-0.7-0.1-1.1-4.3
						c-0.4,1.5-1,9.3-1.7,5.8c-0.4-5.6,0.3-4.6,0.7-7.3c-1,2.3-1.4-7.1-2.9-5.9l0.5,4.9C292.8,127.1,292.5,125.3,292.3,126.7z"/>
					<path id="XMLID_261_" class="st0" d="M297.5,141.8l0.1,1.7c0.1-2,0.5-3.4,1.1-6c-0.4-2.9-0.7-3.5-0.9-3.7l-0.1,8.5L297.5,141.8
						z"/>
					<path id="XMLID_260_" class="st0" d="M297.6,151.3c-0.9-1.3-1.2-5.5-2.2-3c0.1,5.1,0.7,3.5,1.1,6.6
						C296.3,146.7,297,157.2,297.6,151.3c0,1.7,0.1,3.1,0.1,4.5c0.1-1.5,0.2-2.9,0.4-4.2c0,0.1,0,0.1-0.1,0.2l0,0c0,0,0,0,0,0
						c-0.1,0.4-0.2,0.5-0.1,0.1c0,0,0-0.1,0-0.2C297.8,151.6,297.7,151.4,297.6,151.3c0.2-2.4,0.2-0.4,0.3,0.4c0,0,0.1,0.1,0.1,0.1
						c0,0,0,0,0,0l-0.5-8.2C297.5,145.2,297.5,147.4,297.6,151.3z"/>
					<path id="XMLID_259_" class="st0" d="M293.3,192.4c0.1-0.3,0.1-0.2,0.2-0.3C293.4,191.6,293.3,191.4,293.3,192.4z"/>
					<path id="XMLID_258_" class="st0" d="M293.8,189c0.1,0.6,0.5,1.1,0.4,3c-0.3,1.7-0.4,0-0.7,0.1c0.2,1.2,0.6,4.1,1,0.4l-0.1-0.6
						c0.3-3.3,1.4-7.5,1.5-7C295.1,185.9,294.6,186.8,293.8,189z"/>
					<path id="XMLID_257_" class="st0" d="M295.5,169.9l-0.4-6.8l-0.7,3.5l0.4-0.2C294.6,170.2,295.2,169.4,295.5,169.9z"/>
					<polygon id="XMLID_256_" class="st0" points="298.2,132.6 299.1,133.6 297.8,129.6 					"/>
					<polygon id="XMLID_255_" class="st0" points="298.1,123.8 298.9,124.1 298.4,121.8 					"/>
					<path id="XMLID_254_" class="st0" d="M11.8,104.3l0.2,2C11.9,105.4,11.8,104.8,11.8,104.3z"/>
					<path id="XMLID_253_" class="st0" d="M11.8,89.8l-0.4-0.4C11.6,90.1,11.8,90.4,11.8,89.8z"/>
					<path id="XMLID_252_" class="st0" d="M192.1,2c-2.9-0.7-6.2-1.9-5.8-1l0.9,0.9C189.2,1.7,190.8,1.8,192.1,2z"/>
					<path id="XMLID_251_" class="st0" d="M43.1,7.2c0.3,0.1,0.6,0.2,0.9,0.3c0.7-0.3,1.4-0.6,2-0.8C45,6.8,44.1,7,43.1,7.2z"/>
					<path id="XMLID_250_" class="st0" d="M41,10.8l-3.8-0.6C38,10.4,39.2,10.6,41,10.8z"/>
					<path id="XMLID_249_" class="st0" d="M12.7,183.6l0.9,2.3C13.5,182.3,13.1,183.9,12.7,183.6z"/>
					<path id="XMLID_248_" class="st0" d="M297.8,33c0.3-2.5,0.5-4.5,0.5-6.3C297.8,29.8,297,32.2,297.8,33z"/>
					<path id="XMLID_247_" class="st0" d="M2.5,98.6c0.2,1.2,0.3,1.8,0.5,1.7C2.9,99.1,2.8,98.4,2.5,98.6z"/>
					<path id="XMLID_246_" class="st0" d="M298.3,19.5c-0.1,0.4-0.1,0.9-0.2,1.3c0.1,1.8,0.3,3.7,0.2,5.9
						C298.6,24.5,298.9,21.9,298.3,19.5z"/>
					<path id="XMLID_245_" class="st0" d="M184.9,288c0.2,0,0.5,0.1,0.7,0.1C185.7,288,185.4,288,184.9,288z"/>
					<path id="XMLID_244_" class="st0" d="M268.7,296.8c-0.8,0.1-2.2,0.1-3.4,0.1C265.8,296.9,266.9,296.9,268.7,296.8z"/>
					<path id="XMLID_243_" class="st0" d="M298.4,88.1C298.5,90,298.5,88.4,298.4,88.1L298.4,88.1z"/>
					<path id="XMLID_242_" class="st0" d="M295,97.3c-0.1-0.4-0.2-0.7-0.4-0.8C294.8,96.7,294.9,96.9,295,97.3z"/>
					<path id="XMLID_241_" class="st0" d="M286.7,7.1c-0.1,0-0.1,0-0.2,0C287.1,7.3,287,7.3,286.7,7.1z"/>
					<path id="XMLID_240_" class="st0" d="M298.1,91c0.1-0.7,0.2-1.5,0.3-2.4C298.2,88.9,298.2,89.7,298.1,91z"/>
					<path id="XMLID_239_" class="st0" d="M298.5,90.6c0,0.6-0.1,1.2-0.1,1.6C298.5,92.5,298.6,92.2,298.5,90.6z"/>
					<path id="XMLID_238_" class="st0" d="M298.4,85.5c0,1.1,0,2.1-0.1,3c0.1-0.4,0.1-0.5,0.1-0.4C298.4,87.6,298.4,86.8,298.4,85.5
						z"/>
					<path id="XMLID_237_" class="st0" d="M31,290.4c0.1,0,0.3,0,0.4,0.1C33.3,290.1,32.4,290.2,31,290.4z"/>
					<path id="XMLID_236_" class="st0" d="M143.2,11c0.1,0,0.1,0,0.2,0C143.3,11,143.2,11,143.2,11L143.2,11z"/>
					<path id="XMLID_235_" class="st0" d="M136.4,11.7c2.9-1.1,4.5-0.9,6.7-0.7l-2.2-2.5L136.4,11.7z"/>
					<path id="XMLID_228_" class="st0" d="M12,139.1l0.8-4.7c1.3,5.7,0.8,9.9,1.9,5.4c-2.7-0.7-0.3-18.4-3-19.1l0.6-3.1
						c0,0.9,0.1,1,0.1,1.9c1.3-6.1-2-4.5-1.6-12.3c0.2-2.7,0.6-4.6,0.9-2.8l-0.7-6.1c0.1-1.8,0.5-1.3,0.5,0.4l-0.2-9.3l0.1,0.1
						c-0.4-1.3-1.1-4.3-1.4-5.8c0.4-2.4,0.3,1.2,0.6,0.6L10,79.1c0.7-2.1,1.4,2.2,1.3,5.7c2.7-4.8-0.7-4.3,0.9-14.6l0.3,4.8
						c1.5-3.1,1-6.9,1.9-12.4c-0.5,1.3-2.4,11-3.1,5.4c0.2-1.6,0.3-3.6-0.2-6.6c1,0,0.7-3,0.7-6.6l1.3,0.3c-0.4-4-1-3.7-1.6-6
						c0.1-4.4,1.1-5.3,2-6.4c0.2-7.1-1.6,4.9-1.8-3.5c0.5-5.9,0-10-0.8-17.1c0.4-4.1,0.8,0.7,1.1-0.8l-1-3.7c0-0.9,0.3-0.6,0.5-0.5
						c-0.2-1.5-0.5-1.6-0.8-1.9c-0.1-0.1-0.2-0.2-0.2-0.3c-0.1-0.1-0.1-0.3-0.2-0.4c-0.1-0.3-0.3-0.7-0.3-1.5
						c-0.6-0.6-0.3-2,0.1-3.1c1.3,0.3,2.5,0.6,3.5,0.7c0.3,0,0.5,0.1,0.7,0.1c0.3,0,0.4,0,0.9,0c0.9-0.1,1.8-0.2,2.7-0.4
						c1.5,0.4-0.7,0.8-0.3,1.3c8.2-1,7.1-0.8,13.8-2.2l5.8,0.8c-4.2-1,1.2-2.1,5.9-3c-1.5-0.5-2.8-0.9-3.6-1.1L47,5.4
						c0.9,0.2,0.2,0.6-1.1,1.2c0.5-0.1,1-0.2,1.4-0.3c2.7,0.5,1.3,1.2-0.6,1.9c-0.9-0.3-1.8-0.5-2.7-0.8c-1.9,0.8-3.6,1.6-3.2,2.4
						c0.5-0.1,1.4-0.3,2.5-0.3c-0.5,0.2-0.8,0.4-0.6,0.5c0.3,0.1,1-0.1,2.3-0.5l1.7,1.4l0.4-0.6l9.9,0.9C64,9.9,70.1,7.8,81.3,7.2
						c-2.8,1-0.6,1.7-0.7,2.9c-3.1-1.3-8.7,0.6-14.5,0.3c3,0.1,2.4,0.7,1.6,0.9L78,10.2c-0.2,1,2.2,0.8,4.9,1.2c-2-2,7.7-1.3,12-1.9
						c0.3,0.7-0.7,1.4-5.9,1.2c5.7,1.5,7.3-2.4,12.9-1.1c-1.3,0-1.9-0.1-2.4,0.3c2.9-0.6,10.1-0.1,8.4,0.5l-1.3,0
						c8.3,0.2,25.4,0,26.7-1.7c0.1,0.2-1.1,2.1-1.6,2.4l14.9-5.7c-1.3,1.5,3.7,4.9-3.2,5.8c2,0.2,4.4,0.5,8.6-0.1
						c-1.4-0.2-3.4-2.1-1.5-2.2c5.1,1.6,3.5,0.9,9.8,2.3c-2-0.3,0.2-2.6,3.4-2.5c-0.5,0.3,0.3,2.3-0.9,2.5l8-2.2
						c-2,0.4-0.4,1.9,1.4,2.5c-0.8-0.4,6.9,0,9-0.2l-3.4-0.5c9,0.3,8.9-3.2,17.9-3c-1.1,0.5-2.7,2.9,1.9,3.1
						c2.1-1.2,9.2-5.5,17.2-6.4l1.5,0.7l6.1-0.8c-3.8,1.7-14.4,5.4-20.2,6.8c3.4,0.5,0.9,0.8,6,0.7c1.8,0.6-2.8,0.9-4.2,1l11.8,0.4
						c-0.5-1.3,9-1.3,8.6-2.5l-12.8,1.4c-0.5-1.3,7.4-3.8,15.7-3.6c2.1,0.5-1.6,2.4-1.4,2.8c1.1-0.5,7.9-0.9,8.7-0.6l-3.5,0.7
						c4.6,0.5,7.6-1.8,13.2-0.5c1.9,0.1,5.8,1.7,6.1,0.9c-3.1-1.5-3.8-6.3-1.7-7.4c0.7,0.1,10.1,1.5,12.3,2.2
						c3.2,1.2-4.8,2.9-2.1,3.9c0.1-0.4,1.9-0.8,2.6-1c2,0.3-0.8,1.1,3.6,1c0.7-1.4,8.9,0.1,2.1-1.2c4.3-0.4,4.6,0.3,9.6,0.2
						c-1.6-0.9,4.5-3,8.9-3.4c-0.3,0.3,0.7,0.8,1.1,1c2.3,0,4.3,0.1,6,0.2c-0.1,2.5-0.2,4.8-0.4,7.2c-0.1,2.4-0.2,5-0.2,8
						c-0.3,0.8-0.7,4.7-1.3,3c0.2,1.2,0.7,2.3,0.7,4.8c-1.2,4.9-0.2-5.7-1.6-1.9c0.8,0.3,1.1,6.6,1.6,10.2c1.2-1.1,0.2-8.3-0.3-12
						c1.7,0,3.5,6.3,4.2,14.9c0.4,6.8-1.1,3-0.9,4.1c-0.3,12.8,2.9,10.9,1.7,21.6c-1.1,4.2-2.1,0.2-2.9,1.1
						c-0.4-5.6,0.7-8.5,0.6-12.3l-0.5,4.6c-0.4-1.8-0.6-5.5-0.3-7.5c-1,3.5-0.2,21.7-1.1,31.6c0.4,1.8,0.7,4.8,1.2,3.4l-0.2-3.1
						c0.9-2.9,1.2,5.9,1.6,1.9c0.6,4.2,1.6,8.9,1.1,14.8l-1.2,1.1c0.4-0.1,0.7-3.9,0.4-5.5c0.5,2.5-1.7,9.1-0.1,11.8l0.8-4.1
						c0.6,4.2,1.9,9.4,1.5,14.7c1.2-2.4-0.1-1.2,1.3-4.9c-1.8,3.2,0.1-13.4-1.8-8.2c1.6-3.8,0.7-6.6,2.1-11.6
						c-0.4,0.2-0.8,1.8-0.6-2.6c-0.1-0.2-0.3-0.7-0.4-1c0-0.1,0-0.2,0-0.3c0,0.1,0,0.2,0,0.2c-0.1-0.2-0.1-0.2,0,0.1
						c-0.2,1-0.4,1.9-0.6,2.2c-0.9-2.2-0.9-9.2-1.4-11.5c0.2-2.6,0.5,1.1,0.9-0.3l-0.7-3.5c0.9-0.4,1.5-6.9,2-0.8l0-5.5
						c0.5-3.3,0.7-7.7,0.3-10.5c0.2-2.6-1-6.6-0.3-4.3l-0.6-8.7l0.2-0.1c0.1-8.6-1.5-17.6,0.1-27.4c-0.1-1.4-0.2-2.9-0.3-4.6
						c0-0.4,0-0.9,0-1.3c0-0.7,0-1.5,0-2.2c0-1.6,0-3.4,0.1-5.4c0,0,0.2-0.5,0.4-1c0.2-0.5,0.4-1.1,0.4-1.1c0-1-0.1-2.3,0-3.7
						c-3.3,0-7.2-0.2-10.7-0.3c-0.9,0-1.7,0-2.5,0c-0.5,0-0.9,0-1.3,0c-0.7,0-1.3,0.1-1.7,0.3c-4-2.1-18-0.5-24.5-0.8l-0.2,1
						c-4.5-0.1-8.8,0.2-14.3,0.6l0.3,0.9c-4.8,0.7-12.3-0.6-19.9-0.5c0.5-0.3,2.4-0.3,3.8,0c-9.1-2-19.1,1.5-27.3,0
						c-2,0.3-3.5,0.2-5,0c0.2,0,0.4,0,0.5,0c-0.2,0-0.5,0-0.8,0c-0.9-0.2-1.8-0.3-2.8-0.5c0.9,0.2,1.7,0.4,2.4,0.5
						c-1.6,0-4,0.1-6.3,0.4l-1-1c-0.2,0-0.3,0-0.5,0c-2.3-0.4-1.9,0.5-0.6,1.2c-1.2,0.2-2.3,0.3-3.1,0.6c-1.9-1.6-6.2,0.5-8.7-1.1
						c-1.6,0.8-11.8,0.6-13.1,2.3c-0.1-0.2-0.8-0.3,0.5-0.3c-2.6-0.2-5.2-0.4-7.6,0.1l-1.1-1.2L147.2,5c-3.5-0.7-4.9-1.2-1.5-2.1
						c-8.3,1.4-6.8,0.5-13.8,2l0.3-0.8c-2.5,0-6.6,1.1-8.1,0.4c-5.7-1.5-28-0.2-42.6-1.6c2.8,2.3-6.8-1-7.3,0.8
						c-0.8-0.6-2.9-0.9-0.5-1.3C66.3,2.9,62.6,1.5,57.5,3c-0.8-0.6,1.6-0.8,0.8-1.1C57.7,2,56,2.3,55.2,2c-0.8-0.3,1.1-0.5,2.3-0.7
						c-7.6,0.1-8.3,1.8-8.9,3.4C44.7,3.9,42.8,4,40,5.1c-1.3-0.5-3.6-1.1,1.1-1.3C38.5,3.8,25,3.1,24.7,4.3C23.9,4,21,4.3,20.3,4.4
						c-3.1-0.1-4.7-0.1-6.4-0.1c-2.2,0-4.3,0-8.2,0L8,4.5C7.3,5.1,6.5,5.3,5.3,5.3c0,1.1-0.1,2.2-0.1,3.5c-0.1,1.3-0.2,2.9-0.1,4.9
						l-0.2-0.2c-0.1,1.5-0.2,2.6-0.3,3.6c-0.1,0.9-0.1,1.6-0.1,2.1c0,1.1,0,1.7,0.1,2.3c0.1,1.1,0.2,2.3-0.4,7.6l1-0.6
						c2.1,1-1.2,9.4-0.4,15.6l0.5-2.2c0.7,3.4-2.8,9.4-3.1,12.8c-0.2,0.7-0.3-1.2-0.4-2.2c-1.2,8.9,1.3,1.1,1.5,7.8
						c-0.7,1.2-1.7-1.6-1.8,2.9c-0.5,2.2,2.2,12.9,0.9,19c0.5-1.3,1-2.7,1.4,0.4c0.2,4.7-2,12.7-0.3,17c-0.1,0.6-0.3,0.8-0.4,0.8
						c0.4,3.6,0.7,11.7,1.6,13.9c-3.3,3.3,1.6,22.4-1.4,22.3l0.2,11.1l-0.3-0.3c-0.2,7.1,0.5,9.6,1.3,12.1c-0.2,1.6-0.5,0.4-0.7,0.3
						c-0.6,10.3-0.5,11.4,1,20l-1,0.9c0.6,2.3-1.6,14.9-0.4,25.1c-0.1-0.1-0.3-0.3-0.4-1.1c1.2,11.4-2.8,27.3,0.9,31.5l0.9,7.5
						c0.3-9.7,1.6,1.4,2.2-2.6c0.2,3.8-1.1,9.9-1.3,5.2l0.2-0.7c-1.9-1.7-0.7,12.1-1.9,11.8c0,6.1-0.1,12.1-0.2,18
						c-0.1,3-0.2,5.9-0.2,8.9c-0.1,4.3-0.2,8.5-0.2,12.7c4.7,0.1,9.4,0.2,14,0.2c3.3,0.1,6.7,0.1,9.9,0.1l-2.1-1.5l6.3,0.1
						c1.6,0.3,2.2,1.1-2.3,1.1c2.3,0.8,7.5-0.7,7.6-1c8.7,0.6-3.4,1.7-0.7,1.7l3.6-0.1l-0.8-0.2c3-0.6,3.2-1.2,8.6-1.2
						c3.4,0.3,1.7,0.9,3.1,1c0,0.1,0.4,0.2,2.1,0l7.9,0.1l-3.2-1.2c3.5-0.6,7.4,0.1,3.8-1.2c5.3,2,29.4,0.7,32.7,1.4
						c4.9-0.8,9.7-0.8,15.7-0.7c-1.5-0.2-2.4-1.5,2.8-1.4c-1.9,2.7,9.5,1.2,13.6,3.1c-3.7-1.3,14.7-0.3,8.8-2.1
						c4.3,0.2,0.3,1,3.5,1.6c10.3-1,22.6,0.7,35.3,0.3c0.2-0.4-1.9-0.9,0.8-1.4l6.7,1.8c2.5-0.2,2.3-2,6.9-0.8
						c-0.6-0.3-1.6-0.7,0.1-0.9c24.8,1.7,50.7-1.4,76,1.8c-3.4-0.7-1.1-0.7,1.5-0.8c-1.7-0.2,0-0.9-0.3-1.3l10.6,1.3
						c1.9-1.3,11.3-0.1,12.4-1.4l-3.3,0.2c4.4-1.5-6.2-3.3-5.6-5.2c-5,1.7-13.1-2.5-21.3-0.1c-1.8-0.4,1.5-0.6,0.6-1.1
						c-2.1,0.8-4.6,1-9.2,0.6l0.5-0.2c-13,0.2-18.6-0.6-33.2-1.1l1.1,0.9c-3.1-0.1-3.8-0.4-5.3-0.7c-3.6,1.4,8.8,0.1,5.5,1.7
						c-4.2-1.9-22.2,0-25-2.2c-4.8,0,1.4,1.1-3.4,1.1l-1.3-0.6l-1.2,0.8c-3.2-0.1-4.8-0.9-4.9-1.4c0.8,0.1,2.2-0.1,3-0.2
						c-4.1-0.7-11.6,0.2-13,0l4.6,0.4c-13.2,0.6-29.3-0.2-42,1l1,0.4c-9.7,0.8-7.8-0.5-18.5-0.1l0.4-0.1c-2.1,0.4-5,0.7-7.9,0.6
						c2.7-0.5-5.1-1-1.5-1.6c-10.6,0.9-5.2,0.7-12.2,2.4l-1.6-0.7c-2.4,0.7-2.6,1-7.9,1.2c4.4-0.6-3.4-1.1,1.5-2
						c-11.2-1.6-16.6,1.6-21.8-0.7c-5.1,2.1,9.7,1.1,6.8,1.6c2.4,0.7-4.2,1.5-7.8,1.3c-3.6,0-6.1-2.6-15.1-2.6c0.9,0,1-0.1,1.8-0.1
						c-3.4-0.5-6.6,0.7-10.7-0.1c-2.3,1.2-5.4-0.1-6,1.5l8.3-0.4c-4.7,0.4-9.1,2.3-16.8,1.4c0.6-0.3,2.9-0.7,4.5-1
						c-2.3-0.5-4.3,0.3-6.7-0.2c0.7-1.6,10-0.3,15-1.6c-2.4-0.7-9.5,1.1-7-0.6c-3.6,2.2-8.9-0.3-15,1.4l0.4-0.9
						c-0.5,0.1-1.2,0.2-2.1,0.4c-0.2,0-0.4,0.1-0.6,0.1l-0.3,0c-0.1,0-0.1,0-0.2,0c-0.2,0-0.5,0.1-0.7,0.1c0,0,0.5-0.3,0.8-0.6
						c0.8-0.3,1.6-0.6,1.6-0.6c-0.8,0.2-1.8,0.3-1.9,0.3c-0.3,0-0.6,0-0.9,0c-0.5-0.1-0.9-0.3-1.2-0.5c0.2-0.7,0.3-1.1,0.1-1.5
						c0,0.9-0.1,1.4-0.3,1.7c0,0.2-0.3,0.5-0.7,0.7c-0.3,0.3-0.7,0.6-0.1,0.8c-0.3,0.1-0.6,0.1-0.9,0.1c-0.2-1.2-0.1-2.3,0.1-3
						c0.1-0.4,0.2-0.7,0.4-0.9l0.1-0.2c0,0,0,0,0.1-0.1l0.1-0.2c0.1-0.2,0.2-0.5,0.3-0.7c0.7-1.9,1.4-4.1,1.2-10.7
						c0.1,1.9-0.6,7-1,4.1c0.2-2.6,0.6-6,1.1-7.6c-0.2-9.1-1,1.4-1.6-2.5c1.2-3.1-0.5-4.5-0.8-8.4l1,0c0.6-10.3-2-2.7-1.3-12
						l1.3,3.9l-0.3-4.8l1.1,1c-0.8-5.3-0.6-6.9-0.3-12.1c-0.7,1.2-1.8-0.7-1.8-5.3c0.6-3.1,0.9,1.7,0.8-4.7c0.6,1.5,1.4,3.1,0.5,5.9
						c0.3,0.3,0.6,1.4,0.9,1.7c0.7-3.4,0.2-8.4,0.1-10.8c0,0.9-0.1,2-0.2,2.5l-1.3-9.4c0.4-1.5,0.7-0.3,0.9,0.9
						c-0.1-1.9-0.5-3.2-0.6-6c0.8,0.7,1.6,0.6,2,4.5l-0.9-9c0.3-0.6,0.9-4.6,1.2-3.4c0.5-5-1.5-12.2-0.9-18.8
						c-0.2-0.3-0.3-1-0.4-2.4c0.2-6.2,1.1-11.7,0.1-19l1.4-4.2c-0.3-5.7-1.8,5.6-2.3-3.9c-0.4-6.8,1.2-2.5,1.6-4.9
						c-0.7-3.4-2.2-9.2-1-15.4C12.1,135.5,11.9,137.2,12,139.1z M11.4,68.2c0.2,1.4,0.8,4.1,0.3,5.1C10.5,71.8,11.1,70.6,11.4,68.2z
						 M53.5,9.1c-1,0.3-2.6,0.2-4.4-0.2C50.4,8.8,51.9,8.8,53.5,9.1z M297.7,67.5c0-0.1,0-0.1,0-0.1C298,64.3,297.8,65.4,297.7,67.5
						z M297.2,73.9c0.1,0.6,0.3,0.6,0.4,0.3c-0.2-0.4-0.3-1.9-0.2-3.5C297.2,71.2,297,72,297.2,73.9z M51,296.9l-1.2-0.3
						C52.6,296.3,51.8,296.6,51,296.9z"/>
					<path id="XMLID_227_" class="st0" d="M41.3,10.4c-0.4-0.2-0.5-0.3-0.6-0.5C40.1,10,40.1,10.2,41.3,10.4z"/>
					<path id="XMLID_226_" class="st0" d="M12.5,183.1l0,0.2c0.1,0.1,0.1,0.2,0.2,0.2L12.5,183.1z"/>
					<path id="XMLID_225_" class="st0" d="M261.4,10.9c-1.3-0.1-2-0.3-2.5-0.5C258.8,10.7,259.4,10.9,261.4,10.9z"/>
					<path id="XMLID_224_" class="st0" d="M298.9,107.6l-0.3-4.1c0,2-0.2,2.7-0.3,3.7C298.5,107.1,298.9,106.3,298.9,107.6z"/>
					<path id="XMLID_223_" class="st0" d="M292.9,142.9c0.1,0.6,0,1.3,0.1,1.8l0.4-0.2C293.5,142.1,293.1,140.3,292.9,142.9z"/>
					<path id="XMLID_222_" class="st0" d="M295.7,111.4c-0.8,0.3-0.5,2.9-0.4,5.7c0-0.2,0-0.3,0-0.5
						C296.4,117.4,296.1,114.4,295.7,111.4z"/>
					<path id="XMLID_221_" class="st0" d="M295.3,117.7c0,0.9,0.1,1.8,0,2.6C295.8,120.7,295.4,119.3,295.3,117.7z"/>
					<path id="XMLID_220_" class="st0" d="M297.8,81.9c-0.2,1.4,1,0.8,0.7,1.6C299.5,85.1,297.2,74.5,297.8,81.9z"/>
					<polygon id="XMLID_219_" class="st0" points="293,113.7 294,112.6 293.2,111 					"/>
					<path id="XMLID_218_" class="st0" d="M293.7,91.1l-0.3,4.6c0.2-0.1,0.3,0.5,0.3,1.2C293.8,94.1,294,91,293.7,91.1z"/>
					<path id="XMLID_217_" class="st0" d="M293.8,96.9c0,1.5,0,2.9,0.2,3.7C294,99.8,293.9,98.1,293.8,96.9z"/>
					<polygon id="XMLID_216_" class="st0" points="292.7,107.4 292.9,106.1 293,102.9 					"/>
					<path id="XMLID_215_" class="st0" d="M293.9,42.1l-0.3-5c-0.3-0.5-0.6,0.8-0.4,2.7C293.5,41,293.6,42.9,293.9,42.1z"/>
					<path id="XMLID_214_" class="st0" d="M291.2,57.2c0.2-1.3,0.4-1.4,0.8-2.2l-1.2-0.2L291.2,57.2z"/>
					<path id="XMLID_213_" class="st0" d="M290.9,42.7c-0.3-0.5-1-7.2-0.9-0.9C290.3,42.2,290.6,47.2,290.9,42.7z"/>
					<polygon id="XMLID_212_" class="st0" points="253.7,7.5 254.9,7.5 254.8,5.5 					"/>
					<path id="XMLID_211_" class="st0" d="M187.6,12.4c5.9,0.5,1.4-1.3,6.7-0.6c1.4-0.5-4.4-0.5-2.9-0.9
						C187.8,11.3,186,11.1,187.6,12.4z"/>
					<path id="XMLID_210_" class="st0" d="M191.4,10.8c0.6-0.1,1.2-0.2,1.8-0.3C192.2,10.7,191.7,10.8,191.4,10.8z"/>
					<polygon id="XMLID_209_" class="st0" points="282.6,297.9 286.3,298.3 283.9,297.6 					"/>
					<path id="XMLID_208_" class="st0" d="M289.8,296.4l0.9,1.3l2.3-1.2C292.1,296.6,290.5,296.7,289.8,296.4z"/>
					<path id="XMLID_207_" class="st0" d="M14,57.7l-0.3-0.3c-0.3,0.6-0.4,1.5-0.4,3.3L14,57.7z"/>
					<polygon id="XMLID_206_" class="st0" points="13,109.1 13,108.2 11.9,109.9 					"/>
					<path id="XMLID_205_" class="st0" d="M14.5,152.3c0-1.8-0.2-3.8-0.2-5.6C14.6,150.5,13.1,152.8,14.5,152.3z"/>
				</g>
			</g>
		</g>
	</g>
</g>
<g id="XMLID_3_">
	<g id="XMLID_104_">
		<g id="XMLID_108_">
			<g id="XMLID_109_">
				<g id="XMLID_110_">
					<path id="XMLID_197_" class="st0" d="M11.9,291.7c-0.1,1.7,0.8,1.1,0.9,1.3C12.6,290.2,11.7,291.7,11.9,291.7z"/>
					<polygon id="XMLID_196_" class="st0" points="10,263.8 10.3,264.3 9.5,260.2 					"/>
					<path id="XMLID_195_" class="st0" d="M10,237.7c-1.4,2.5,0.2,9.4-0.3,14.1l-0.3,0.8l1.1,2.1C10.3,249,9.6,241.7,10,237.7z"/>
					<path id="XMLID_194_" class="st0" d="M13.1,223.8c-0.6,0.9-0.5-3-0.2,3.2c0.1-0.3,0.1-0.4,0.1-0.6
						C13,225.9,13,225.1,13.1,223.8z"/>
					<path id="XMLID_193_" class="st0" d="M13,226.5C13.1,229.2,13.5,224.7,13,226.5L13,226.5z"/>
					<path id="XMLID_192_" class="st0" d="M12.7,213.8l0.5,3.6c0.3-0.8,0.4-4,0.6-2.8C13.6,210.9,13.3,211.7,12.7,213.8z"/>
					<path id="XMLID_191_" class="st0" d="M11.7,210.4l0.2,1.9C12,211.9,12.1,211.4,11.7,210.4z"/>
					<path id="XMLID_190_" class="st0" d="M12.3,216.2l-0.4-4c-0.2,0.5-0.7,0.6,0.2,1.8C11.6,213.7,12,214.5,12.3,216.2z"/>
					<path id="XMLID_189_" class="st0" d="M12.1,218.5c-0.3,2-0.5,4.6-1,1C11.3,226.4,12.3,225.4,12.1,218.5z"/>
					<path id="XMLID_188_" class="st0" d="M8.5,236.4l-0.4,2.7l0.5,2.3C8.3,240.3,9,236.2,8.5,236.4z"/>
					<path id="XMLID_187_" class="st0" d="M13.5,191.3c-0.3-0.2-0.8,1.2-1.2,1.5l0.3,2.7C12.8,194,13,191.4,13.5,191.3z"/>
					<path id="XMLID_186_" class="st0" d="M12.3,192.7l-0.5-4C11.7,192.3,11.9,193,12.3,192.7z"/>
					<polygon id="XMLID_185_" class="st0" points="10.1,209.7 11.2,216.3 10.1,208.4 					"/>
					<polygon id="XMLID_184_" class="st0" points="13.5,176 14.2,178.3 13.1,174.2 					"/>
					<path id="XMLID_183_" class="st0" d="M13.4,165.9c0.6,1.7,1-2.3,1.3-0.5c-0.1-2.8-0.6-5.1-1.1-7.2
						C13.9,160.4,13.8,162.8,13.4,165.9z"/>
					<path id="XMLID_182_" class="st0" d="M13,154.6c0.1,1.1,0.4,2.3,0.7,3.6C13.5,156.9,13.3,155.8,13,154.6z"/>
					<path id="XMLID_181_" class="st0" d="M11.9,181.9c0.2-0.3,0.7-0.9,0.9-3.1l-0.9,1.6C11.9,180.8,11.9,181.4,11.9,181.9z"/>
					<path id="XMLID_180_" class="st0" d="M11.9,180.4L11.9,180.4c0.1-1.8,0.1-2.9,0.1-3.5C11.9,177.4,11.9,178.4,11.9,180.4z"/>
					<path id="XMLID_179_" class="st0" d="M11.9,182.3c0-0.1,0-0.3,0-0.4C11.8,182.1,11.8,182.2,11.9,182.3z"/>
					<path id="XMLID_178_" class="st0" d="M10.9,199.2c-0.5-2.3-1-7.2-1.7-2.5C9.7,198.4,10.1,195.7,10.9,199.2z"/>
					<path id="XMLID_177_" class="st0" d="M10.8,184.3l-0.2,4.2c0.2-0.1,0.6-0.8,0.8,0.3L10.8,184.3z"/>
					<polygon id="XMLID_176_" class="st0" points="10.5,182.2 10.8,184.3 10.9,182.7 					"/>
					<path id="XMLID_175_" class="st0" d="M12.2,161.8c-0.4-1.8-0.4-3.8-0.5-6.1c-0.2,2.4-0.3,4.9-0.3,7.3
						C11.8,163.4,12.2,164.4,12.2,161.8z"/>
					<path id="XMLID_174_" class="st0" d="M12,170.9c0-0.1,0-0.3,0-0.4C11.8,170.7,11.8,170.9,12,170.9z"/>
					<path id="XMLID_173_" class="st0" d="M11.8,133.4c-0.1,0.1-0.1,0.2-0.2,0.4c0.1,0,0.1,0,0.1,0.1L11.8,133.4z"/>
					<path id="XMLID_172_" class="st0" d="M11.3,163.5c-0.2,1.8,0,2.9,0.3,4c-0.1-1.4-0.1-2.8-0.1-4.4
						C11.4,162.9,11.3,162.9,11.3,163.5z"/>
					<path id="XMLID_171_" class="st0" d="M12.6,148.3c-0.2,1-0.3,2-0.5,3.2C12.4,150.6,12.8,148.7,12.6,148.3z"/>
					<path id="XMLID_170_" class="st0" d="M12.2,169.8c0,0.1,0,0.2,0,0.3C12.4,169.5,12.3,169.6,12.2,169.8z"/>
					<path id="XMLID_169_" class="st0" d="M12.2,169.8c-0.1-0.9-0.3-1.7-0.5-2.4c0.1,1.1,0.2,2.1,0.3,3
						C12,170.2,12.1,170,12.2,169.8z"/>
					<path id="XMLID_168_" class="st0" d="M6.3,126.7c0.8,0.3,1.5,5.1,0.7,9.3c0.6,4.1,3.2,1.4,4.7-2.1c-0.3-0.1-0.7-0.1-1.1-4.3
						c-0.4,1.5-1,9.3-1.7,5.8c-0.4-5.6,0.3-4.6,0.7-7.3c-1,2.3-1.4-7.1-2.9-5.9l0.5,4.9C6.8,127.1,6.5,125.3,6.3,126.7z"/>
					<path id="XMLID_167_" class="st0" d="M11.5,141.8l0.1,1.7c0.1-2,0.5-3.4,1.1-6c-0.4-2.9-0.7-3.5-0.9-3.7l-0.1,8.5L11.5,141.8z"
						/>
					<path id="XMLID_166_" class="st0" d="M11.6,151.3c-0.9-1.3-1.2-5.5-2.2-3c0.1,5.1,0.7,3.5,1.1,6.6
						C10.3,146.7,11,157.2,11.6,151.3c0,1.7,0.1,3.1,0.1,4.5c0.1-1.5,0.2-2.9,0.4-4.2c0,0.1,0,0.1-0.1,0.2l0,0c0,0,0,0,0,0
						c-0.1,0.4-0.2,0.5-0.1,0.1c0,0,0-0.1,0-0.2C11.8,151.6,11.7,151.4,11.6,151.3c0.2-2.4,0.2-0.4,0.3,0.4c0,0,0.1,0.1,0.1,0.1
						c0,0,0,0,0,0l-0.5-8.2C11.5,145.2,11.5,147.4,11.6,151.3z"/>
					<path id="XMLID_165_" class="st0" d="M7.3,192.4c0.1-0.3,0.1-0.2,0.2-0.3C7.4,191.6,7.3,191.4,7.3,192.4z"/>
					<path id="XMLID_164_" class="st0" d="M7.8,189c0.1,0.6,0.5,1.1,0.4,3c-0.3,1.7-0.4,0-0.7,0.1c0.2,1.2,0.6,4.1,1,0.4l-0.1-0.6
						c0.3-3.3,1.4-7.5,1.5-7C9.1,185.9,8.6,186.8,7.8,189z"/>
					<path id="XMLID_163_" class="st0" d="M9.5,169.9l-0.4-6.8l-0.7,3.5l0.4-0.2C8.6,170.2,9.2,169.4,9.5,169.9z"/>
					<polygon id="XMLID_162_" class="st0" points="12.2,132.6 13.1,133.6 11.8,129.6 					"/>
					<polygon id="XMLID_161_" class="st0" points="12.1,123.8 12.9,124.1 12.4,121.8 					"/>
					<path id="XMLID_160_" class="st0" d="M297.8,104.3l0.2,2C297.9,105.4,297.8,104.8,297.8,104.3z"/>
					<path id="XMLID_159_" class="st0" d="M297.8,89.8l-0.4-0.4C297.6,90.1,297.8,90.4,297.8,89.8z"/>
					<path id="XMLID_158_" class="st0" d="M107.9,12c2.9,0.7,6.2,1.9,5.8,1l-0.9-0.9C110.8,12.3,109.2,12.2,107.9,12z"/>
					<path id="XMLID_157_" class="st0" d="M256.9,6.8c-0.3-0.1-0.6-0.2-0.9-0.3c-0.7,0.3-1.4,0.6-2,0.8C255,7.2,255.9,7,256.9,6.8z"
						/>
					<path id="XMLID_156_" class="st0" d="M259,3.2l3.8,0.6C262,3.6,260.8,3.4,259,3.2z"/>
					<path id="XMLID_155_" class="st0" d="M298.7,183.6l0.9,2.3C299.5,182.3,299.1,183.9,298.7,183.6z"/>
					<path id="XMLID_154_" class="st0" d="M11.8,33c0.3-2.5,0.5-4.5,0.5-6.3C11.8,29.8,11,32.2,11.8,33z"/>
					<path id="XMLID_153_" class="st0" d="M288.5,98.6c0.2,1.2,0.3,1.8,0.5,1.7C288.9,99.1,288.8,98.4,288.5,98.6z"/>
					<path id="XMLID_152_" class="st0" d="M12.3,19.5c-0.1,0.4-0.1,0.9-0.2,1.3c0.1,1.8,0.3,3.7,0.2,5.9
						C12.6,24.5,12.9,21.9,12.3,19.5z"/>
					<path id="XMLID_151_" class="st0" d="M115.1,298c-0.2,0-0.5-0.1-0.7-0.1C114.3,298,114.6,298,115.1,298z"/>
					<path id="XMLID_150_" class="st0" d="M31.3,289.2c0.8-0.1,2.2-0.1,3.4-0.1C34.2,289.1,33.1,289.1,31.3,289.2z"/>
					<path id="XMLID_149_" class="st0" d="M12.4,88.1C12.5,90,12.5,88.4,12.4,88.1L12.4,88.1z"/>
					<path id="XMLID_148_" class="st0" d="M9,97.3c-0.1-0.4-0.2-0.7-0.4-0.8C8.8,96.7,8.9,96.9,9,97.3z"/>
					<path id="XMLID_147_" class="st0" d="M13.2,6.9c0.1,0,0.1,0,0.2,0C12.8,6.7,12.9,6.7,13.2,6.9z"/>
					<path id="XMLID_146_" class="st0" d="M12.1,91c0.1-0.7,0.2-1.5,0.3-2.4C12.2,88.9,12.2,89.7,12.1,91z"/>
					<path id="XMLID_145_" class="st0" d="M12.5,90.6c0,0.6-0.1,1.2-0.1,1.6C12.5,92.5,12.6,92.2,12.5,90.6z"/>
					<path id="XMLID_144_" class="st0" d="M12.4,85.5c0,1.1,0,2.1-0.1,3c0.1-0.4,0.1-0.5,0.1-0.4C12.4,87.6,12.4,86.8,12.4,85.5z"/>
					<path id="XMLID_143_" class="st0" d="M269,295.6c-0.1,0-0.3,0-0.4-0.1C266.7,295.9,267.6,295.8,269,295.6z"/>
					<path id="XMLID_142_" class="st0" d="M156.8,3c-0.1,0-0.1,0-0.2,0C156.7,3,156.8,3,156.8,3L156.8,3z"/>
					<path id="XMLID_141_" class="st0" d="M163.6,2.3c-2.9,1.1-4.5,0.9-6.7,0.7l2.2,2.5L163.6,2.3z"/>
					<path id="XMLID_134_" class="st0" d="M298,139.1l0.8-4.7c1.3,5.7,0.8,9.9,1.9,5.4c-2.7-0.7-0.3-18.4-3-19.1l0.6-3.1
						c0,0.9,0.1,1,0.1,1.9c1.3-6.1-2-4.5-1.6-12.3c0.2-2.7,0.6-4.6,0.9-2.8l-0.7-6.1c0.1-1.8,0.5-1.3,0.5,0.4l-0.2-9.3l0.1,0.1
						c-0.4-1.3-1.1-4.3-1.4-5.8c0.4-2.4,0.3,1.2,0.6,0.6l-0.7-5.1c0.7-2.1,1.4,2.2,1.3,5.7c2.7-4.8-0.7-4.3,0.9-14.6l0.3,4.8
						c1.5-3.1,1-6.9,1.9-12.4c-0.5,1.3-2.4,11-3.1,5.4c0.2-1.6,0.3-3.6-0.2-6.6c1,0,0.7-3,0.7-6.6l1.3,0.3c-0.4-4-1-3.7-1.6-6
						c0.1-4.4,1.1-5.3,2-6.4c0.2-7.1-1.6,4.9-1.8-3.5c0.5-5.9,0-10-0.8-17.1c0.4-4.1,0.8,0.7,1.1-0.8l-1-3.7c0-0.9,0.3-0.6,0.5-0.5
						c-0.2-1.5-0.5-1.6-0.8-1.9c-0.1-0.1-0.2-0.2-0.2-0.3c-0.1-0.1-0.1-0.2-0.2-0.6c-0.1-0.7-0.3-1.7-0.3-3.3
						c-0.6-0.6-0.3-3.1,0.1-7.1c-2-0.3-4.5-0.6-7.2-0.7c-0.7,0-1.4-0.1-2.1-0.1c-0.7,0-1.5,0-1.8,0c-0.9,0.1-1.8,0.2-2.7,0.4
						c-1.5-0.4,0.7-0.8,0.3-1.3c-8.2,1-7.1,0.8-13.8,2.2l-5.8-0.8c4.2,1-1.2,2.1-5.9,3c1.5,0.5,2.8,0.9,3.6,1.1L253,8.6
						c-0.9-0.2-0.2-0.6,1.1-1.2c-0.5,0.1-1,0.2-1.4,0.3c-2.7-0.5-1.3-1.2,0.6-1.9c0.9,0.3,1.8,0.5,2.7,0.8c1.9-0.8,3.6-1.6,3.2-2.4
						c-0.5,0.1-1.4,0.3-2.5,0.3c0.5-0.2,0.8-0.4,0.6-0.5c-0.3-0.1-1,0.1-2.3,0.5L253.4,3L253,3.6l-9.9-0.9
						c-7.1,1.4-13.2,3.5-24.4,4.1c2.8-1,0.6-1.7,0.7-2.9c3.1,1.3,8.7-0.6,14.5-0.3c-3-0.1-2.4-0.7-1.6-0.9L222,3.8
						c0.2-1-2.2-0.8-4.9-1.2c2,2-7.7,1.3-12,1.9c-0.3-0.7,0.7-1.4,5.9-1.2c-5.7-1.5-7.3,2.4-12.9,1.1c1.3,0,1.9,0.1,2.4-0.3
						c-2.9,0.6-10.1,0.1-8.4-0.5l1.3,0c-8.3-0.2-25.4,0-26.7,1.7c-0.1-0.2,1.1-2.1,1.6-2.4l-14.9,5.7c1.3-1.5-3.7-4.9,3.2-5.8
						c-2-0.2-4.4-0.5-8.6,0.1c1.4,0.2,3.4,2.1,1.5,2.2c-5.1-1.6-3.5-0.9-9.8-2.3c2,0.3-0.2,2.6-3.4,2.5c0.5-0.3-0.3-2.3,0.9-2.5
						l-8,2.2c2-0.4,0.4-1.9-1.4-2.5c0.8,0.4-6.9,0-9,0.2l3.4,0.5c-9-0.3-8.9,3.2-17.9,3c1.1-0.5,2.7-2.9-1.9-3.1
						c-2.1,1.2-9.2,5.5-17.2,6.4l-1.5-0.7l-6.1,0.8C81.3,8.2,92,4.5,97.8,3.1c-3.4-0.5-0.9-0.8-6-0.7c-1.8-0.6,2.8-0.9,4.2-1L84.2,1
						c0.5,1.3-9,1.3-8.6,2.5l12.8-1.4c0.5,1.3-7.4,3.8-15.7,3.6c-2.1-0.5,1.6-2.4,1.4-2.8c-1.1,0.5-7.9,0.9-8.7,0.6L69,2.7
						c-4.6-0.5-7.6,1.8-13.2,0.5c-1.9-0.1-5.8-1.7-6.1-0.9c3.1,1.5,3.8,6.3,1.7,7.4c-0.7-0.1-10.1-1.5-12.3-2.2
						c-3.2-1.2,4.8-2.9,2.1-3.9c-0.1,0.4-1.9,0.8-2.6,1c-2-0.3,0.8-1.1-3.6-1c-0.7,1.4-8.9-0.1-2.1,1.2c-4.3,0.4-4.6-0.3-9.6-0.2
						c1.6,0.9-4.6,3-8.8,3.4c0.2-0.3-0.7-0.8-1.2-1c-2.4,0-4.5-0.1-6.6-0.2c-0.1,2.8-0.2,5.2-0.4,7.8c-0.1,2.5-0.2,5-0.2,8.1
						c-0.3,0.8-0.7,4.7-1.3,3c0.2,1.2,0.7,2.3,0.7,4.8c-1.2,4.9-0.2-5.7-1.6-1.9C4.7,28.7,5,35,5.5,38.6c1.2-1.1,0.2-8.3-0.3-12
						c1.7,0,3.5,6.3,4.2,14.9c0.4,6.8-1.1,3-0.9,4.1c-0.3,12.8,2.9,10.9,1.7,21.6c-1.1,4.2-2.1,0.2-2.9,1.1
						C7.1,62.8,8.1,59.8,8.1,56l-0.5,4.6c-0.4-1.8-0.6-5.5-0.3-7.5c-1,3.5-0.2,21.7-1.1,31.6c0.4,1.8,0.7,4.8,1.2,3.4L7.2,85
						c0.9-2.9,1.2,5.9,1.6,1.9c0.6,4.2,1.6,8.9,1.1,14.8l-1.2,1.1C9,102.7,9.4,99,9,97.3c0.5,2.5-1.7,9.1-0.1,11.8l0.8-4.1
						c0.6,4.2,1.9,9.4,1.5,14.7c1.2-2.4-0.1-1.2,1.3-4.9c-1.8,3.2,0.1-13.4-1.8-8.2c1.6-3.8,0.7-6.6,2.1-11.6
						c-0.4,0.2-0.8,1.8-0.6-2.6c-0.1-0.2-0.3-0.7-0.4-1c0-0.1,0-0.2,0-0.3c0,0.1,0,0.2,0,0.2c-0.1-0.2-0.1-0.2,0,0.1
						c-0.2,1-0.4,1.9-0.6,2.2c-0.9-2.2-0.9-9.2-1.4-11.5c0.2-2.6,0.5,1.1,0.9-0.3l-0.7-3.5c0.9-0.4,1.5-6.9,2-0.8l0-5.5
						c0.5-3.3,0.7-7.7,0.3-10.5c0.2-2.6-1-6.6-0.3-4.3l-0.6-8.7l0.2-0.1c0.1-8.6-1.5-17.6,0.1-27.4c-0.1-1.4-0.2-2.9-0.3-4.6
						c0-0.4,0-0.9,0-1.3c0-0.2,0-0.4,0-0.6c0-0.4,0-0.8,0.1-1.2c0,0,0.8,0.2,0.8,0.2c0-0.2-0.1-0.4,0-0.6c0.6,0,1.3,0.2,1.8,0.3
						c0.1,0,0.2,0,0.3,0c0.3,0,0.8,0,1.2,0c0.7,0,1.3-0.1,1.7-0.3c4,2.1,18,0.5,24.5,0.8l0.2-1c4.5,0.1,8.8-0.2,14.3-0.6l-0.3-0.9
						c4.8-0.7,12.3,0.6,19.9,0.5c-0.5,0.3-2.4,0.3-3.8,0c9.1,2,19.1-1.5,27.3,0c2-0.3,3.5-0.2,5,0c-0.2,0-0.4,0-0.5,0
						c0.2,0,0.5,0,0.8,0c0.9,0.2,1.8,0.3,2.8,0.5c-0.9-0.2-1.7-0.4-2.4-0.5c1.6,0,4-0.1,6.3-0.4l1,1c0.2,0,0.3,0,0.5,0
						c2.3,0.4,1.9-0.5,0.6-1.2c1.2-0.2,2.3-0.3,3.1-0.6c1.9,1.6,6.2-0.5,8.7,1.1c1.6-0.8,11.8-0.6,13.1-2.3c0.1,0.2,0.8,0.3-0.5,0.3
						c2.6,0.2,5.2,0.4,7.6-0.1l1.1,1.2l5.7-1.6c3.5,0.7,4.9,1.2,1.5,2.1c8.3-1.4,6.8-0.5,13.8-2l-0.3,0.8c2.5,0,6.6-1.1,8.1-0.4
						c5.7,1.5,28,0.2,42.6,1.6c-2.8-2.3,6.8,1,7.3-0.8c0.8,0.6,2.9,0.9,0.5,1.3c7.4-0.5,11.1,0.9,16.3-0.6c0.8,0.6-1.6,0.8-0.8,1.1
						c0.6-0.1,2.4-0.5,3.1-0.2c0.8,0.3-1.1,0.5-2.3,0.7c7.6-0.1,8.3-1.8,8.9-3.4c3.8,0.8,5.8,0.6,8.5-0.4c1.3,0.5,3.6,1.1-1.1,1.3
						c2.6,0.1,16.2,0.8,16.5-0.5c0.8,0.3,3.7,0.1,4.4-0.1c2.9,0.1,4.4,0.1,6,0.1c1,0,2,0,4,0l-0.9-0.2c0.9-0.5,1.8-0.7,2.6-0.8
						c0,0.7-0.1,1.5-0.1,2.4c-0.1,0.9-0.2,1.9-0.1,3l-0.2-0.1c0,0.2-0.1,0.5-0.1,0.7c0,0.3-0.1,0.6-0.1,0.9c0,0.6-0.1,1-0.1,1.5
						c-0.1,0.9-0.1,1.6-0.1,2.1c0,1.1,0,1.7,0.1,2.3c0.1,1.1,0.2,2.3-0.4,7.6l1-0.6c2.1,1-1.2,9.4-0.4,15.6l0.5-2.2
						c0.7,3.4-2.8,9.4-3.1,12.8c-0.2,0.7-0.3-1.2-0.4-2.2c-1.2,8.9,1.3,1.1,1.5,7.8c-0.7,1.2-1.7-1.6-1.8,2.9
						c-0.5,2.2,2.2,12.9,0.9,19c0.5-1.3,1-2.7,1.4,0.4c0.2,4.7-2,12.7-0.3,17c-0.1,0.6-0.3,0.8-0.4,0.8c0.4,3.6,0.7,11.7,1.6,13.9
						c-3.3,3.3,1.6,22.4-1.4,22.3l0.2,11.1l-0.3-0.3c-0.2,7.1,0.5,9.6,1.3,12.1c-0.2,1.6-0.5,0.4-0.7,0.3c-0.6,10.3-0.5,11.4,1,20
						l-1,0.9c0.6,2.3-1.6,14.9-0.4,25.1c-0.1-0.1-0.3-0.3-0.4-1.1c1.2,11.4-2.8,27.3,0.9,31.5l0.9,7.5c0.3-9.7,1.6,1.4,2.2-2.6
						c0.2,3.8-1.1,9.9-1.3,5.2l0.2-0.7c-1.9-1.7-0.7,12.1-1.9,11.8c0,6.1-0.1,12.1-0.2,18c-0.1,3-0.2,5.9-0.2,8.9l0,1.1l0,0.6
						l-0.1,1.1c0,0.7-0.1,1.4-0.1,2.1c-0.9,0-1.7-0.1-2.6-0.1l-1.2-0.1l-2.4-0.1c-3.3-0.1-6.7-0.1-9.9-0.1l2.1,1.5l-6.3-0.1
						c-1.6-0.3-2.2-1.1,2.3-1.1c-2.3-0.8-7.5,0.7-7.6,1c-8.7-0.6,3.4-1.7,0.7-1.7l-3.6,0.1l0.8,0.2c-3,0.6-3.2,1.2-8.6,1.2
						c-3.4-0.3-1.7-0.9-3.1-1c0-0.1-0.4-0.2-2.1,0l-7.9-0.1l3.2,1.2c-3.5,0.6-7.4-0.1-3.8,1.2c-5.3-2-29.4-0.7-32.7-1.4
						c-4.9,0.8-9.7,0.8-15.7,0.7c1.5,0.2,2.4,1.5-2.8,1.4c1.9-2.7-9.5-1.2-13.6-3.1c3.7,1.3-14.7,0.3-8.8,2.1
						c-4.3-0.2-0.3-1-3.5-1.6c-10.3,1-22.6-0.7-35.3-0.3c-0.2,0.4,1.9,0.9-0.8,1.4l-6.7-1.8c-2.5,0.2-2.3,2-6.9,0.8
						c0.6,0.3,1.6,0.7-0.1,0.9c-24.8-1.7-50.7,1.4-76-1.8c3.4,0.7,1.1,0.7-1.5,0.8c1.7,0.2,0,0.9,0.3,1.3l-10.6-1.3
						c-1.9,1.3-11.3,0.1-12.4,1.4l3.3-0.2c-4.4,1.5,6.2,3.3,5.6,5.2c5-1.7,13.1,2.5,21.3,0.1c1.8,0.4-1.5,0.6-0.6,1.1
						c2.1-0.8,4.6-1,9.2-0.6l-0.5,0.2c13-0.2,18.6,0.6,33.2,1.1l-1.1-0.9c3.1,0.1,3.8,0.4,5.3,0.7c3.6-1.4-8.8-0.1-5.5-1.7
						c4.2,1.9,22.2,0,25,2.2c4.8,0-1.4-1.1,3.4-1.1l1.3,0.6l1.2-0.8c3.2,0.1,4.8,0.9,4.9,1.4c-0.8-0.1-2.2,0.1-3,0.2
						c4.1,0.7,11.6-0.2,13,0l-4.6-0.4c13.2-0.6,29.3,0.2,42-1l-1-0.4c9.7-0.8,7.8,0.5,18.5,0.1l-0.4,0.1c2.1-0.4,5-0.7,7.9-0.6
						c-2.7,0.5,5.1,1,1.5,1.6c10.6-0.9,5.2-0.7,12.2-2.4l1.6,0.7c2.4-0.7,2.6-1,7.9-1.2c-4.4,0.6,3.4,1.1-1.5,2
						c11.2,1.6,16.6-1.6,21.8,0.7c5.1-2.1-9.7-1.1-6.8-1.6c-2.4-0.7,4.2-1.5,7.8-1.3c3.6,0,6.1,2.6,15.1,2.6c-0.9,0-1,0.1-1.8,0.1
						c3.4,0.5,6.6-0.7,10.7,0.1c2.3-1.2,5.4,0.1,6-1.5l-8.3,0.4c4.7-0.4,9.1-2.3,16.8-1.4c-0.6,0.3-2.9,0.7-4.5,1
						c2.3,0.5,4.3-0.3,6.7,0.2c-0.7,1.6-10,0.3-15,1.6c2.4,0.7,9.5-1.1,7,0.6c3.6-2.2,8.9,0.3,15-1.4l-0.4,0.9
						c0.5-0.1,1.2-0.2,2.1-0.4c0.2,0,0.4-0.1,0.6-0.1l0.3,0l0.5,0c0.7,0,1.4-0.1,2-0.1c0,0-1.2,0.3-2.4,0.6
						c-0.8,0.3-1.6,0.6-1.6,0.6c0.8-0.2,1.4-0.3,2.9-0.3c1.3,0,2.5,0,3.8,0c2.6,0.1,5.2,0.3,8,0.5c0.2-2.6,0.3-5.5,0.1-8.4
						c0,5.4-0.1,7.6-0.3,8.2c-1.3-0.2-0.9-0.5-1-0.7c0-0.3-0.4-0.6-2.7-0.8c0.7-0.1,1.4-0.1,2-0.1c-0.2-3.9-0.1-6.2,0.1-8
						c0.1-0.9,0.2-1.7,0.4-2.4c0-0.2,0.1-0.4,0.1-0.5l0.1-0.3l0.1-0.2c0.1-0.2,0.2-0.5,0.3-0.7c0.7-1.9,1.4-4.1,1.2-10.7
						c0.1,1.9-0.6,7-1,4.1c0.2-2.6,0.6-6,1.1-7.6c-0.2-9.1-1,1.4-1.6-2.5c1.2-3.1-0.5-4.5-0.8-8.4l1,0c0.6-10.3-2-2.7-1.3-12
						l1.3,3.9l-0.3-4.8l1.1,1c-0.8-5.3-0.6-6.9-0.3-12.1c-0.7,1.2-1.8-0.7-1.8-5.3c0.6-3.1,0.9,1.7,0.8-4.7c0.6,1.5,1.4,3.1,0.5,5.9
						c0.3,0.3,0.6,1.4,0.9,1.7c0.7-3.4,0.2-8.4,0.1-10.8c0,0.9-0.1,2-0.2,2.5l-1.3-9.4c0.4-1.5,0.7-0.3,0.9,0.9
						c-0.1-1.9-0.5-3.2-0.6-6c0.8,0.7,1.6,0.6,2,4.5l-0.9-9c0.3-0.6,0.9-4.6,1.2-3.4c0.5-5-1.5-12.2-0.9-18.8
						c-0.2-0.3-0.3-1-0.4-2.4c0.2-6.2,1.1-11.7,0.1-19l1.4-4.2c-0.3-5.7-1.8,5.6-2.3-3.9c-0.4-6.8,1.2-2.5,1.6-4.9
						c-0.7-3.4-2.2-9.2-1-15.4C298.1,135.5,297.9,137.2,298,139.1z M297.4,68.2c0.2,1.4,0.8,4.1,0.3,5.1
						C296.5,71.8,297.1,70.6,297.4,68.2z M246.5,4.9c1-0.3,2.6-0.2,4.4,0.2C249.6,5.2,248.1,5.2,246.5,4.9z M11.7,67.5
						c0-0.1,0-0.1,0-0.1C12,64.3,11.8,65.4,11.7,67.5z M11.2,73.9c0.1,0.6,0.3,0.6,0.4,0.3c-0.2-0.4-0.3-1.9-0.2-3.5
						C11.2,71.2,11,72,11.2,73.9z M249,289.1l1.2,0.3C247.4,289.7,248.2,289.4,249,289.1z"/>
					<path id="XMLID_133_" class="st0" d="M258.7,3.6c0.4,0.2,0.5,0.3,0.6,0.5C259.9,4,259.9,3.8,258.7,3.6z"/>
					<path id="XMLID_132_" class="st0" d="M298.5,183.1l0,0.2c0.1,0.1,0.1,0.2,0.2,0.2L298.5,183.1z"/>
					<path id="XMLID_131_" class="st0" d="M38.6,3.1c1.3,0.1,2,0.3,2.5,0.5C41.2,3.3,40.6,3.1,38.6,3.1z"/>
					<path id="XMLID_130_" class="st0" d="M12.9,107.6l-0.3-4.1c0,2-0.2,2.7-0.3,3.7C12.5,107.1,12.9,106.3,12.9,107.6z"/>
					<path id="XMLID_129_" class="st0" d="M6.9,142.9c0.1,0.6,0,1.3,0.1,1.8l0.4-0.2C7.5,142.1,7.1,140.3,6.9,142.9z"/>
					<path id="XMLID_128_" class="st0" d="M9.7,111.4c-0.8,0.3-0.5,2.9-0.4,5.7c0-0.2,0-0.3,0-0.5C10.4,117.4,10.1,114.4,9.7,111.4z
						"/>
					<path id="XMLID_127_" class="st0" d="M9.3,117.7c0,0.9,0.1,1.8,0,2.6C9.8,120.7,9.4,119.3,9.3,117.7z"/>
					<path id="XMLID_126_" class="st0" d="M11.8,81.9c-0.2,1.4,1,0.8,0.7,1.6C13.5,85.1,11.2,74.5,11.8,81.9z"/>
					<polygon id="XMLID_125_" class="st0" points="7,113.7 8,112.6 7.2,111 					"/>
					<path id="XMLID_124_" class="st0" d="M7.7,91.1l-0.3,4.6c0.2-0.1,0.3,0.5,0.3,1.2C7.8,94.1,8,91,7.7,91.1z"/>
					<path id="XMLID_123_" class="st0" d="M7.8,96.9c0,1.5,0,2.9,0.2,3.7C8,99.8,7.9,98.1,7.8,96.9z"/>
					<polygon id="XMLID_122_" class="st0" points="6.7,107.4 6.9,106.1 7,102.9 					"/>
					<path id="XMLID_121_" class="st0" d="M7.9,42.1l-0.3-5c-0.3-0.5-0.6,0.8-0.4,2.7C7.5,41,7.6,42.9,7.9,42.1z"/>
					<path id="XMLID_120_" class="st0" d="M5.2,57.2C5.4,55.8,5.6,55.7,6,55l-1.2-0.2L5.2,57.2z"/>
					<path id="XMLID_119_" class="st0" d="M4.9,42.7c-0.3-0.5-1-7.2-0.9-0.9C4.3,42.2,4.6,47.2,4.9,42.7z"/>
					<polygon id="XMLID_118_" class="st0" points="46.3,6.5 45.1,6.5 45.2,8.5 					"/>
					<path id="XMLID_117_" class="st0" d="M112.4,1.6c-5.9-0.5-1.4,1.3-6.7,0.6c-1.4,0.5,4.4,0.5,2.9,0.9
						C112.2,2.7,114,2.9,112.4,1.6z"/>
					<path id="XMLID_116_" class="st0" d="M108.6,3.2c-0.6,0.1-1.2,0.2-1.8,0.3C107.8,3.3,108.3,3.2,108.6,3.2z"/>
					<polygon id="XMLID_115_" class="st0" points="17.4,288.1 13.7,287.7 16.1,288.4 					"/>
					<path id="XMLID_114_" class="st0" d="M10.2,289.6l-0.9-1.3L7,289.5C7.9,289.4,9.5,289.3,10.2,289.6z"/>
					<path id="XMLID_113_" class="st0" d="M300,57.7l-0.3-0.3c-0.3,0.6-0.4,1.5-0.4,3.3L300,57.7z"/>
					<polygon id="XMLID_112_" class="st0" points="299,109.1 299,108.2 297.9,109.9 					"/>
					<path id="XMLID_111_" class="st0" d="M300.5,152.3c0-1.8-0.2-3.8-0.2-5.6C300.6,150.5,299.1,152.8,300.5,152.3z"/>
				</g>
			</g>
		</g>
	</g>
</g>
</svg>
